<?xml version="1.0" encoding="UTF-8" standalone="no"?>
<!-- Created with Inkscape (http://www.inkscape.org/) -->

<svg
   width="200"
   height="200"
   viewBox="0 0 52.916665 52.91667"
   version="1.1"
   id="svg1144"
   xmlns="http://www.w3.org/2000/svg"
   xmlns:svg="http://www.w3.org/2000/svg">
  <defs
     id="defs1141" />
  <g
     id="layer1"
     transform="translate(-34.974396,-29.604444)">
    <g
       id="g1071"
       transform="matrix(0.29458021,0,0,0.29458021,-269.59556,-47.455071)">
      <circle
         style="fill:#ffffff;stroke-width:0.934034"
         id="path873"
         cx="1123.7289"
         cy="351.40802"
         r="89.817078" />
      <g
         id="g1061"
         transform="translate(243.1982,101.15323)">
        <path
           id="path14-2"
           style="fill:#47a8de;fill-opacity:1;fill-rule:evenodd;stroke:none;stroke-width:0.133333"
           d="m 950.40134,239.42206 h 8.06667 c -1.29067,-9.02133 -3.95733,-17.42267 -8,-25.19867 -4.04667,-7.78133 -9.20266,-14.66666 -15.468,-20.66666 -6.26533,-6.04667 -13.40133,-10.93734 -21.40133,-14.66667 -7.95333,-3.73466 -16.48933,-6.04666 -25.59867,-6.93733 v 8 c 8,0.89067 15.51067,2.97866 22.53067,6.27066 6.98,3.33334 13.24533,7.64134 18.80267,12.932 5.55733,5.28667 10.13466,11.35467 13.73466,18.19867 3.64533,6.80133 6.088,14.156 7.33333,22.068" />
        <path
           id="path16-7"
           style="fill:#f3ba17;fill-opacity:1;fill-rule:evenodd;stroke:none;stroke-width:0.133333"
           d="m 870.00001,180.35406 v -8.068 c -8.756,1.20267 -16.932,3.73467 -24.532,7.604 -7.604,3.81733 -14.4,8.708 -20.4,14.66667 -5.95866,5.95333 -10.87066,12.72933 -14.73466,20.33333 -3.86533,7.59867 -6.42267,15.756 -7.66667,24.464 h 8.068 c 1.64533,-10.21867 5.19733,-19.48933 10.66667,-27.79733 5.50933,-8.312 12.42133,-15.18267 20.73333,-20.604 8.35467,-5.464 17.64133,-9 27.86533,-10.59867" />
        <path
           id="path18-9"
           style="fill:#3f78ba;fill-opacity:1;fill-rule:evenodd;stroke:none;stroke-width:0.133333"
           d="m 810.19735,257.42206 h -8 c 0.89067,9.156 3.204,17.75467 6.93733,25.80147 3.72933,8 8.62,15.15053 14.66667,21.46413 6.04266,6.312 12.97466,11.48907 20.79733,15.53587 7.82267,4.0412 16.26533,6.70786 25.33333,8 v -8.06814 c -7.95333,-1.24386 -15.35466,-3.68653 -22.19733,-7.33333 -6.89067,-3.59853 -12.98,-8.20267 -18.26667,-13.80107 -5.33333,-5.55213 -9.66666,-11.8656 -13,-18.93226 -3.33333,-7.02147 -5.42133,-14.57867 -6.27066,-22.66667" />
        <path
           id="path20-5"
           style="fill:#2b3d4f;fill-opacity:1;fill-rule:evenodd;stroke:none;stroke-width:0.133333"
           d="m 888.00001,320.55686 v 8 c 9.42134,-0.93747 18.244,-3.38013 26.468,-7.33333 8.17734,-3.9588 15.44267,-9.11507 21.79734,-15.46814 6.35466,-6.3548 11.48933,-13.6464 15.40133,-21.8652 3.91066,-8.1828 6.312,-17.00013 7.19733,-26.46813 h -8 c -0.88533,8.35333 -3.088,16.1348 -6.59867,23.33333 -3.46399,7.24427 -8.02133,13.68694 -13.66666,19.33334 -5.59867,5.6452 -12.02133,10.24426 -19.26533,13.80146 -7.24534,3.5104 -15.02134,5.7292 -23.33334,6.66667" />
        <path
           id="path22-0"
           style="fill:#2b3d4f;fill-opacity:1;fill-rule:evenodd;stroke:none;stroke-width:0.133333"
           d="m 889.81201,222.61406 h -8.11466 c -1.68667,-2.86933 -3.92134,-5.12533 -6.70267,-6.76 -2.78133,-1.636 -5.88533,-2.45333 -9.308,-2.45333 -2.92133,0 -5.588,0.61466 -8.004,1.84933 -2.41733,1.23333 -4.49067,2.89067 -6.21467,4.968 -1.724,2.07334 -3.06133,4.48 -4.02,7.208 -0.95866,2.73467 -1.43733,5.60933 -1.43733,8.63067 0,3.57333 0.53067,6.74 1.588,9.49466 1.05733,2.76134 2.43733,5.04667 4.136,6.87467 1.69733,1.824 3.71867,3.34933 6.05733,4.568 2.34267,1.224 4.97334,1.83333 7.89467,1.83333 3.97467,0 7.43867,-0.96266 10.38133,-2.89066 2.948,-1.92667 5.46267,-5.088 7.552,-9.49467 l 6.64534,3.13067 c -0.95334,2.71866 -2.57867,5.344 -4.86934,7.87466 -2.292,2.532 -5.11466,4.568 -8.47466,6.12 -3.364,1.54667 -7.08267,2.31734 -11.16134,2.31734 -3.90133,0 -7.48933,-0.73467 -10.76,-2.208 -3.27066,-1.46934 -6.188,-3.568 -8.74,-6.28667 -2.55733,-2.71867 -4.51066,-5.93733 -5.85333,-9.66667 -1.34933,-3.724 -2.02133,-7.61466 -2.02133,-11.66666 0,-4.07734 0.672,-7.932 2.02133,-11.55734 1.34267,-3.62533 3.23333,-6.77599 5.66133,-9.45866 2.432,-2.676 5.328,-4.79067 8.68667,-6.34267 3.36,-1.548 7.00533,-2.324 10.932,-2.324 3.5,0 6.52133,0.5 9.06267,1.496 2.54266,0.99467 4.69866,2.176 6.47466,3.54667 1.776,1.37467 3.30134,2.864 4.588,4.47333 h 4 z" />
        <path
           id="path24-4"
           style="fill:#2b3d4f;fill-opacity:1;fill-rule:evenodd;stroke:none;stroke-width:0.133333"
           d="m 873.06801,246.04073 v -6.53067 h 18.57734 v 6.53067 h -5.73867 v 44.2188 h 19.744 c 0.40667,0 0.808,-0.0932 1.208,-0.28027 0.40667,-0.1932 0.77067,-0.43853 1.1,-0.74013 0.328,-0.30254 0.588,-0.64627 0.79067,-1.03587 0.204,-0.39067 0.30266,-0.78653 0.30266,-1.1932 v -7.20787 h 7.172 v 16.9532 h -43.156 v -6.49586 h 5.43734 v -44.2188 z" />
      </g>
    </g>
  </g>
</svg>
