<?xml version="1.0" encoding="UTF-8" standalone="no"?>
<svg
   viewBox="0 0 442.81146 200"
   height="200"
   width="442.81146"
   xml:space="preserve"
   id="svg2"
   version="1.1"
   sodipodi:docname="SVGLogo.svg"
   inkscape:version="1.1.1 (3bf5ae0d25, 2021-09-20)"
   xmlns:inkscape="http://www.inkscape.org/namespaces/inkscape"
   xmlns:sodipodi="http://sodipodi.sourceforge.net/DTD/sodipodi-0.dtd"
   xmlns="http://www.w3.org/2000/svg"
   xmlns:svg="http://www.w3.org/2000/svg"
   xmlns:rdf="http://www.w3.org/1999/02/22-rdf-syntax-ns#"
   xmlns:cc="http://creativecommons.org/ns#"
   xmlns:dc="http://purl.org/dc/elements/1.1/"><sodipodi:namedview
     id="namedview33"
     pagecolor="#505050"
     bordercolor="#eeeeee"
     borderopacity="1"
     inkscape:pageshadow="0"
     inkscape:pageopacity="0"
     inkscape:pagecheckerboard="0"
     showgrid="false"
     fit-margin-top="0"
     fit-margin-left="0"
     fit-margin-right="0"
     fit-margin-bottom="0"
     inkscape:zoom="1.2059554"
     inkscape:cx="191.96398"
     inkscape:cy="117.33436"
     inkscape:window-width="1920"
     inkscape:window-height="991"
     inkscape:window-x="-9"
     inkscape:window-y="-9"
     inkscape:window-maximized="1"
     inkscape:current-layer="svg2" /><metadata
     id="metadata8"><rdf:RDF><cc:Work
         rdf:about=""><dc:format>image/svg+xml</dc:format><dc:type
           rdf:resource="http://purl.org/dc/dcmitype/StillImage" /></cc:Work></rdf:RDF></metadata><defs
     id="defs6" /><g
     id="g1001"
     transform="matrix(0.77057852,0,0,0.77057852,14.708273,11.146673)"><rect
       style="fill:#f9f9f9"
       id="rect872"
       width="574.64807"
       height="259.54526"
       x="-19.087313"
       y="-14.465331" /><g
       transform="matrix(1.3333333,0,0,-1.3333333,0,230.66667)"
       id="g10"><g
         transform="scale(0.1)"
         id="g12"><path
           id="path14"
           style="fill:#47a8de;fill-opacity:1;fill-rule:evenodd;stroke:none"
           d="m 2553.91,1223.98 h 60.5 c -9.68,67.66 -29.68,130.67 -60,188.99 -30.35,58.36 -69.02,110 -116.01,155 -46.99,45.35 -100.51,82.03 -160.51,110 -59.65,28.01 -123.67,45.35 -191.99,52.03 v -60 c 60,-6.68 116.33,-22.34 168.98,-47.03 52.35,-25 99.34,-57.31 141.02,-96.99 41.68,-39.65 76.01,-85.16 103.01,-136.49 27.34,-51.01 45.66,-106.17 55,-165.51" /><path
           id="path16"
           style="fill:#f3ba17;fill-opacity:1;fill-rule:evenodd;stroke:none"
           d="m 1950.9,1666.99 v 60.51 c -65.67,-9.02 -126.99,-28.01 -183.99,-57.03 -57.03,-28.63 -108,-65.31 -153,-110 -44.69,-44.65 -81.53,-95.47 -110.51,-152.5 -28.99,-56.99 -48.17,-118.17 -57.5,-183.48 h 60.51 c 12.34,76.64 38.98,146.17 80,208.48 41.32,62.34 93.16,113.87 155.5,154.53 62.66,40.98 132.31,67.5 208.99,79.49" /><path
           id="path18"
           style="fill:#3f78ba;fill-opacity:1;fill-rule:evenodd;stroke:none"
           d="m 1502.38,1088.98 h -60 c 6.68,-68.67 24.03,-133.16 52.03,-193.511 27.97,-60 64.65,-113.629 110,-160.981 45.32,-47.34 97.31,-86.168 155.98,-116.519 58.67,-30.309 121.99,-50.309 190,-60 v 60.511 c -59.65,9.329 -115.16,27.649 -166.48,55 -51.68,26.989 -97.35,61.52 -137,103.508 -40,41.641 -72.5,88.992 -97.5,141.992 -25,52.661 -40.66,109.34 -47.03,170" /><path
           id="path20"
           style="fill:#2b3d4f;fill-opacity:1;fill-rule:evenodd;stroke:none"
           d="m 2085.9,615.469 v -60 c 70.66,7.031 136.83,25.351 198.51,55 61.33,29.691 115.82,68.363 163.48,116.011 47.66,47.661 86.17,102.348 115.51,163.989 29.33,61.371 47.34,127.501 53.98,198.511 h -60 c -6.64,-62.65 -23.16,-121.011 -49.49,-175 -25.98,-54.332 -60.16,-102.652 -102.5,-145 -41.99,-42.339 -90.16,-76.832 -144.49,-103.511 -54.34,-26.328 -112.66,-42.969 -175,-50" /><path
           id="path22"
           style="fill:#2b3d4f;fill-opacity:1;fill-rule:evenodd;stroke:none"
           d="m 2099.49,1350.04 h -60.86 c -12.65,21.52 -29.41,38.44 -50.27,50.7 -20.86,12.27 -44.14,18.4 -69.81,18.4 -21.91,0 -41.91,-4.61 -60.03,-13.87 -18.13,-9.25 -33.68,-21.68 -46.61,-37.26 -12.93,-15.55 -22.96,-33.6 -30.15,-54.06 -7.19,-20.51 -10.78,-42.07 -10.78,-64.73 0,-26.8 3.98,-50.55 11.91,-71.21 7.93,-20.71 18.28,-37.85 31.02,-51.56 12.73,-13.68 27.89,-25.12 45.43,-34.26 17.57,-9.18 37.3,-13.75 59.21,-13.75 29.81,0 55.79,7.22 77.86,21.68 22.11,14.45 40.97,38.16 56.64,71.21 l 49.84,-23.48 c -7.15,-20.39 -19.34,-40.08 -36.52,-59.06 -17.19,-18.99 -38.36,-34.26 -63.56,-45.9 -25.23,-11.6 -53.12,-17.38 -83.71,-17.38 -29.26,0 -56.17,5.51 -80.7,16.56 -24.53,11.02 -46.41,26.76 -65.55,47.15 -19.18,20.39 -33.83,44.53 -43.9,72.5 -10.12,27.93 -15.16,57.11 -15.16,87.5 0,30.58 5.04,59.49 15.16,86.68 10.07,27.19 24.25,50.82 42.46,70.94 18.24,20.07 39.96,35.93 65.15,47.57 25.2,11.61 52.54,17.43 81.99,17.43 26.25,0 48.91,-3.75 67.97,-11.22 19.07,-7.46 35.24,-16.32 48.56,-26.6 13.32,-10.31 24.76,-21.48 34.41,-33.55 h 30 z" /><path
           id="path24"
           style="fill:#2b3d4f;fill-opacity:1;fill-rule:evenodd;stroke:none"
           d="m 1973.91,1174.34 v 48.98 h 139.33 v -48.98 H 2070.2 V 842.699 h 148.08 c 3.05,0 6.06,0.699 9.06,2.102 3.05,1.449 5.78,3.289 8.25,5.551 2.46,2.269 4.41,4.847 5.93,7.769 1.53,2.93 2.27,5.899 2.27,8.949 v 54.059 h 53.79 V 793.98 h -323.67 v 48.719 h 40.78 v 331.641 z" /><path
           id="path26"
           style="fill:#2c3e51;fill-opacity:1;fill-rule:nonzero;stroke:none"
           d="m 184.801,253.828 c -7.18,12.192 -16.711,21.762 -28.59,28.75 -11.871,7.07 -25.121,10.621 -39.691,10.621 -12.5,0 -23.8989,-2.648 -34.2192,-7.969 -10.3125,-5.308 -19.1797,-12.421 -26.5625,-21.25 -7.2969,-8.859 -12.9688,-19.14 -17.0274,-30.781 -4.0625,-11.558 -6.0898,-23.82 -6.0898,-36.719 0,-15.308 2.2187,-28.859 6.7187,-40.621 4.4493,-11.8 10.3086,-21.558 17.5,-29.379 7.2618,-7.73 15.9297,-14.179 25.9297,-19.371 10,-5.23 21.2505,-7.8082 33.7505,-7.8082 16.96,0 31.718,4.0972 44.218,12.3402 12.582,8.199 23.364,21.718 32.352,40.468 l 28.281,-13.281 c -4.07,-11.68 -11.019,-22.93 -20.781,-33.75 -9.809,-10.7382 -21.879,-19.4569 -36.25,-26.0975 -14.301,-6.5586 -30.121,-9.8399 -47.5,-9.8399 -16.68,0 -32.0002,3.1289 -45.9416,9.3789 -13.9882,6.3203 -26.4101,15.3086 -37.3476,26.8715 -10.8516,11.558 -19.1719,25.308 -25.00002,41.25 -5.74219,15.937 -8.5898425,32.539 -8.5898425,49.839 0,17.391 2.8476525,33.79 8.5898425,49.219 5.82812,15.512 13.91012,28.949 24.21872,40.321 10.3907,11.441 22.7422,20.46 37.0313,27.031 14.3789,6.64 29.9297,10 46.7192,10 14.89,0 27.742,-2.153 38.601,-6.41 10.93,-4.18 20.149,-9.219 27.649,-15.161 7.582,-5.859 14.14,-12.179 19.691,-19.058 h 17.027 v -28.594 z m 61.41,70.942 H 300.27 V 101.641 h 25.16 V 73.9805 h -79.219 v 27.6605 h 24.219 v 195.308 h -24.219 z" /><path
           id="path28"
           style="fill:#2c3e51;fill-opacity:1;fill-rule:nonzero;stroke:none"
           d="m 352.93,157.422 c 0.082,13.199 2.191,25.238 6.25,36.098 4.14,10.82 9.922,20.152 17.34,27.96 7.39,7.821 16.179,13.79 26.41,17.969 10.191,4.141 21.449,6.25 33.75,6.25 12.379,0 23.672,-2.109 33.91,-6.25 10.308,-4.179 19.101,-10.109 26.398,-17.808 7.274,-7.731 12.973,-16.993 17.032,-27.813 4.07,-10.859 6.101,-22.887 6.101,-36.098 0,-13.039 -2.031,-25 -6.101,-35.929 -4.059,-10.86 -9.758,-20.16 -17.032,-27.9729 -7.297,-7.8086 -16.09,-13.9062 -26.398,-18.2773 -10.238,-4.3789 -21.531,-6.5703 -33.91,-6.5703 -12.621,0 -24.02,2.1484 -34.219,6.4101 -10.231,4.3789 -18.981,10.3907 -26.25,18.1289 -7.301,7.8085 -12.973,17.1015 -17.031,27.9605 -4.059,10.821 -6.168,22.821 -6.25,35.942 z m 31.718,0 c 0,-9.613 1.332,-18.242 4.063,-25.942 2.699,-7.73 6.449,-14.289 11.25,-19.679 4.769,-5.43 10.309,-9.653 16.559,-12.6604 6.332,-2.9297 13.05,-4.3711 20.16,-4.3711 7.379,0 14.261,1.4414 20.621,4.3711 6.449,2.8904 12.039,7.0704 16.719,12.5004 4.769,5.39 8.48,11.949 11.101,19.687 2.688,7.692 4.059,16.402 4.059,26.094 0,10.078 -1.371,19.058 -4.059,26.879 -2.621,7.89 -6.25,14.449 -10.941,19.679 -4.692,5.321 -10.27,9.258 -16.719,11.879 -6.481,2.692 -13.402,4.063 -20.781,4.063 -7.11,0 -13.828,-1.371 -20.16,-4.063 -6.25,-2.621 -11.79,-6.558 -16.559,-11.879 -4.801,-5.23 -8.551,-11.789 -11.25,-19.679 -2.731,-7.821 -4.063,-16.801 -4.063,-26.879 z" /><path
           id="path30"
           style="fill:#2c3e51;fill-opacity:1;fill-rule:nonzero;stroke:none"
           d="m 652.969,240.859 h 53.75 V 101.641 h 18.59 V 73.9805 h -48.75 v 15.4687 c -7.5,-5.8594 -15.7,-10.3906 -24.528,-13.5898 -8.871,-3.1992 -18.359,-4.8399 -28.441,-4.8399 -8.36,0 -15.93,1.211 -22.809,3.5899 -6.801,2.5 -12.582,6.289 -17.34,11.4101 -4.812,5.0703 -8.519,11.5586 -11.101,19.3715 -2.61,7.808 -3.899,17.187 -3.899,28.129 v 79.679 h -22.5 v 27.66 h 53.75 v -103.91 c 0,-12.73 2.969,-22.34 8.899,-28.898 5.941,-6.571 14.422,-9.8518 25.469,-9.8518 6.562,0 13.441,1.1406 20.632,3.4418 7.258,2.379 14.137,5.66 20.618,9.839 v 101.719 h -22.34 z" /><path
           id="path32"
           style="fill:#2c3e51;fill-opacity:1;fill-rule:nonzero;stroke:none"
           d="m 868.629,324.77 h 52.66 V 101.641 H 945.82 V 73.9805 h -54.371 v 13.75 c -5.429,-5.5391 -11.679,-9.8399 -18.75,-12.961 -7.109,-3.0078 -15.16,-4.539 -24.219,-4.539 -11.25,0 -21.8,2 -31.57,5.9414 -9.68,3.9492 -18.121,9.6875 -25.308,17.1875 -7.114,7.5816 -12.653,16.8706 -16.723,27.8126 -3.981,11.019 -5.93,23.668 -5.93,37.969 0,12.808 1.91,24.449 5.781,35 3.821,10.629 9.29,19.687 16.399,27.187 7.07,7.5 15.633,13.281 25.633,17.344 10,4.137 21.129,6.25 33.437,6.25 8,0 15.352,-0.902 22.031,-2.652 6.641,-1.801 13.04,-4.848 19.219,-9.219 v 63.898 h -22.82 z M 852.379,96.3281 c 8.949,0 16.41,1.293 22.351,3.9019 6.008,2.7 11.598,6.649 16.719,11.879 v 93.59 c -5.429,4.461 -11.648,7.699 -18.597,9.692 -6.993,2.07 -14.141,3.129 -21.403,3.129 -7.109,0 -13.75,-1.329 -20,-3.911 -6.25,-2.621 -11.719,-6.488 -16.41,-11.558 -4.687,-5 -8.398,-11.211 -11.09,-18.602 -2.621,-7.301 -3.91,-15.621 -3.91,-25 0,-10.308 1.25,-19.449 3.75,-27.34 2.582,-7.808 6.172,-14.379 10.781,-19.687 4.692,-5.313 10.231,-9.332 16.719,-12.031 6.441,-2.7308 13.481,-4.0629 21.09,-4.0629 z" /><path
           id="path34"
           style="fill:#2c3e51;fill-opacity:1;fill-rule:nonzero;stroke:none"
           d="m 1053.55,318.199 h 79.38 v -27.808 h -24.53 v -188.75 h 84.22 c 1.76,0 3.47,0.39 5.15,1.25 1.76,0.82 3.32,1.879 4.69,3.129 1.45,1.32 2.58,2.851 3.44,4.531 0.82,1.64 1.25,3.32 1.25,5 v 30.777 h 30.62 V 73.9805 h -184.22 v 27.6605 h 23.29 v 188.75 h -23.29 z" /><path
           id="path36"
           style="fill:#2c3e51;fill-opacity:1;fill-rule:nonzero;stroke:none"
           d="m 1283.95,153.52 c 0,-4.692 0.31,-9.032 0.93,-12.969 0.71,-3.871 1.72,-7.582 2.97,-11.102 4.06,-10.738 10.47,-18.859 19.22,-24.371 8.75,-5.4296 18.63,-8.1288 29.69,-8.1288 8.63,0 17.07,1.1719 25.31,3.6018 8.2,2.5 16.88,6.289 25.94,11.398 l 12.03,-20.4685 c -10.94,-7.5 -21.95,-13.0821 -32.97,-16.711 -11.05,-3.6406 -22.58,-5.4687 -34.53,-5.4687 -11.25,0 -21.72,1.8711 -31.41,5.6211 -9.61,3.75 -17.89,9.2969 -24.84,16.7187 -6.88,7.5 -12.31,16.7574 -16.25,27.8084 -3.87,11.02 -5.78,23.91 -5.78,38.602 0,11.949 1.64,23.199 5,33.75 3.32,10.621 8.28,19.879 14.84,27.808 6.64,7.891 14.85,14.141 24.53,18.75 9.77,4.571 21.17,6.871 34.22,6.871 12.58,0 23.13,-1.949 31.56,-5.781 8.44,-3.75 15.32,-8.828 20.63,-15.148 5.31,-6.25 9.3,-13.403 12.03,-21.41 2.7,-8.051 4.61,-16.25 5.78,-24.692 0.51,-4.058 0.82,-8.199 0.94,-12.34 0.19,-4.179 0.31,-8.281 0.31,-12.339 z m 46.87,66.558 c -6.99,0 -13.09,-1.019 -18.28,-2.969 -5.24,-1.988 -9.65,-4.839 -13.28,-8.589 -3.67,-3.68 -6.64,-8.211 -8.91,-13.598 -2.19,-5.313 -3.83,-11.332 -4.84,-17.973 h 86.56 c -0.43,6.25 -1.41,11.961 -2.97,17.192 -1.56,5.308 -3.98,9.879 -7.19,13.75 -3.24,3.828 -7.42,6.8 -12.5,8.91 -5,2.179 -11.21,3.277 -18.59,3.277 z" /><path
           id="path38"
           style="fill:#2c3e51;fill-opacity:1;fill-rule:nonzero;stroke:none"
           d="m 1543.12,89.4492 c -6.36,-5.9297 -13.39,-10.7773 -21.09,-14.5273 -7.62,-3.75 -16.33,-5.6211 -26.09,-5.6211 -8.13,0 -15.63,1.3203 -22.5,3.8984 -6.8,2.5821 -12.66,6.1016 -17.66,10.4727 -4.92,4.4492 -8.75,9.6875 -11.56,15.6289 -2.74,5.9292 -4.06,12.2192 -4.06,18.8982 0,7.071 1.01,13.321 3.12,18.75 2.07,5.512 4.84,10.242 8.28,14.223 3.52,4.058 7.66,7.418 12.35,10.156 4.68,2.813 9.57,5.043 14.68,6.723 5.08,1.64 10.32,2.808 15.63,3.429 5.31,0.711 10.39,1.098 15.31,1.098 7.7,0 14.14,-0.277 19.38,-0.777 5.31,-0.43 10.07,-1.063 14.37,-1.879 l 0.16,13.598 c 0,5.929 -0.9,11.089 -2.66,15.46 -1.68,4.379 -4.06,7.969 -7.19,10.79 -3.12,2.808 -6.87,4.878 -11.25,6.25 -4.29,1.441 -9.14,2.179 -14.53,2.179 -5,0 -9.84,-0.39 -14.53,-1.09 -4.61,-0.629 -8.9,-1.519 -12.97,-2.66 -3.98,-1.168 -7.65,-2.461 -11.09,-3.898 -3.36,-1.492 -6.21,-2.973 -8.6,-4.531 l -9.84,20.781 c 3.95,2.5 8.28,4.84 12.97,7.027 4.77,2.262 9.77,4.223 15,5.781 5.2,1.563 10.51,2.731 15.94,3.59 5.39,0.942 10.78,1.41 16.09,1.41 9.69,0 18.36,-1.168 26.1,-3.437 7.69,-2.301 14.21,-5.902 19.53,-10.781 5.39,-4.801 9.57,-10.942 12.5,-18.442 2.89,-7.418 4.37,-16.328 4.37,-26.719 l -0.16,-83.589 h 18.6 V 73.9805 h -48.6 z m -40.62,5 c 3.95,0 7.89,0.4727 11.88,1.4102 4.06,1.0195 7.85,2.3789 11.4,4.0625 3.52,1.6371 6.8,3.5981 9.84,5.7771 3.01,2.192 5.51,4.422 7.5,6.723 l 0.16,37.808 h -34.84 c -5.74,0 -11.02,-0.699 -15.78,-2.031 -4.81,-1.25 -8.99,-3.121 -12.5,-5.621 -3.44,-2.418 -6.18,-5.469 -8.13,-9.219 -1.87,-3.668 -2.81,-7.808 -2.81,-12.5 0,-4.379 0.78,-8.238 2.34,-11.558 1.64,-3.25 3.95,-5.942 6.88,-8.129 2.89,-2.1915 6.4,-3.8712 10.47,-5.0001 4.14,-1.1719 8.67,-1.7227 13.59,-1.7227 z" /><path
           id="path40"
           style="fill:#2c3e51;fill-opacity:1;fill-rule:nonzero;stroke:none"
           d="m 1723.91,324.77 h 52.65 V 101.641 h 24.53 V 73.9805 h -54.37 v 13.75 c -5.43,-5.5391 -11.68,-9.8399 -18.75,-12.961 -7.11,-3.0078 -15.16,-4.539 -24.22,-4.539 -11.25,0 -21.8,2 -31.56,5.9414 -9.69,3.9492 -18.13,9.6875 -25.31,17.1875 -7.11,7.5816 -12.66,16.8706 -16.72,27.8126 -3.99,11.019 -5.94,23.668 -5.94,37.969 0,12.808 1.91,24.449 5.78,35 3.83,10.629 9.3,19.687 16.41,27.187 7.07,7.5 15.62,13.281 25.62,17.344 10,4.137 21.13,6.25 33.44,6.25 8.01,0 15.35,-0.902 22.03,-2.652 6.64,-1.801 13.05,-4.848 19.22,-9.219 v 63.898 h -22.81 z M 1707.66,96.3281 c 8.94,0 16.4,1.293 22.34,3.9019 6.02,2.7 11.6,6.649 16.72,11.879 v 93.59 c -5.43,4.461 -11.64,7.699 -18.6,9.692 -6.99,2.07 -14.14,3.129 -21.4,3.129 -7.11,0 -13.75,-1.329 -20,-3.911 -6.25,-2.621 -11.72,-6.488 -16.41,-11.558 -4.69,-5 -8.4,-11.211 -11.09,-18.602 -2.62,-7.301 -3.91,-15.621 -3.91,-25 0,-10.308 1.25,-19.449 3.75,-27.34 2.58,-7.808 6.17,-14.379 10.78,-19.687 4.69,-5.313 10.24,-9.332 16.72,-12.031 6.45,-2.7308 13.48,-4.0629 21.1,-4.0629 z" /><path
           id="path42"
           style="fill:#2c3e51;fill-opacity:1;fill-rule:nonzero;stroke:none"
           d="m 1958.87,101.641 h 22.5 v 190.16 h -55.78 v -37.973 h -33.13 v 64.371 h 217.97 v -64.371 h -33.13 v 37.973 h -64.37 v -190.16 h 25.16 V 73.9805 h -79.22 z" /><path
           id="path44"
           style="fill:#2c3e51;fill-opacity:1;fill-rule:nonzero;stroke:none"
           d="m 2122.81,153.52 c 0,-4.692 0.31,-9.032 0.94,-12.969 0.7,-3.871 1.72,-7.582 2.97,-11.102 4.06,-10.738 10.47,-18.859 19.22,-24.371 8.75,-5.4296 18.63,-8.1288 29.68,-8.1288 8.64,0 17.08,1.1719 25.32,3.6018 8.2,2.5 16.87,6.289 25.94,11.398 l 12.03,-20.4685 c -10.94,-7.5 -21.96,-13.0821 -32.97,-16.711 -11.06,-3.6406 -22.58,-5.4687 -34.53,-5.4687 -11.25,0 -21.72,1.8711 -31.41,5.6211 -9.61,3.75 -17.89,9.2969 -24.84,16.7187 -6.88,7.5 -12.31,16.7574 -16.25,27.8084 -3.87,11.02 -5.79,23.91 -5.79,38.602 0,11.949 1.65,23.199 5,33.75 3.33,10.621 8.29,19.879 14.85,27.808 6.64,7.891 14.84,14.141 24.53,18.75 9.77,4.571 21.17,6.871 34.22,6.871 12.58,0 23.12,-1.949 31.56,-5.781 8.44,-3.75 15.31,-8.828 20.63,-15.148 5.31,-6.25 9.29,-13.403 12.03,-21.41 2.69,-8.051 4.61,-16.25 5.78,-24.692 0.51,-4.058 0.82,-8.199 0.94,-12.34 0.19,-4.179 0.31,-8.281 0.31,-12.339 z m 46.88,66.558 c -6.99,0 -13.09,-1.019 -18.28,-2.969 -5.24,-1.988 -9.65,-4.839 -13.29,-8.589 -3.67,-3.68 -6.64,-8.211 -8.9,-13.598 -2.19,-5.313 -3.83,-11.332 -4.84,-17.973 h 86.56 c -0.43,6.25 -1.41,11.961 -2.97,17.192 -1.56,5.308 -3.99,9.879 -7.19,13.75 -3.24,3.828 -7.42,6.8 -12.5,8.91 -5,2.179 -11.21,3.277 -18.59,3.277 z" /><path
           id="path46"
           style="fill:#2c3e51;fill-opacity:1;fill-rule:nonzero;stroke:none"
           d="m 2404.8,196.48 c -4.6,8.008 -10.39,13.911 -17.34,17.661 -6.87,3.75 -14.84,5.629 -23.91,5.629 -7.1,0 -13.71,-1.489 -19.84,-4.379 -6.05,-2.813 -11.37,-6.95 -15.94,-12.34 -4.61,-5.43 -8.2,-12 -10.78,-19.692 -2.61,-7.621 -3.9,-16.168 -3.9,-25.629 0,-9.289 1.29,-17.73 3.9,-25.308 2.58,-7.5 6.17,-13.902 10.78,-19.223 4.69,-5.308 10.04,-9.449 16.1,-12.34 6.01,-2.8082 12.58,-4.2184 19.68,-4.2184 10.32,0 19.26,2.5 26.88,7.5004 7.58,5 13.63,12.339 18.12,22.031 l 24.85,-12.192 c -3.24,-6.871 -7.27,-13.082 -12.03,-18.5894 -4.69,-5.4297 -10,-10.1211 -15.94,-14.0625 -5.94,-3.8672 -12.5,-6.8398 -19.69,-8.9062 -7.11,-2.0703 -14.65,-3.1211 -22.65,-3.1211 -11.57,0 -22.31,2.1797 -32.19,6.5586 -9.81,4.3711 -18.28,10.4687 -25.47,18.2812 -7.11,7.8084 -12.62,17.1094 -16.56,27.9684 -3.99,10.942 -5.94,22.813 -5.94,35.621 0,12.891 2.07,24.77 6.25,35.629 4.14,10.821 9.88,20.161 17.19,27.969 7.38,7.813 15.93,13.902 25.62,18.281 9.77,4.371 20.31,6.563 31.56,6.563 10.51,0 20.47,-1.832 29.85,-5.473 9.37,-3.668 17.58,-9.179 24.69,-16.558 h 16.87 V 196.48 Z" /><path
           id="path48"
           style="fill:#2c3e51;fill-opacity:1;fill-rule:nonzero;stroke:none"
           d="m 2466.99,324.77 h 52.81 V 222.578 h 0.94 c 3.01,3.012 6.45,5.82 10.31,8.442 3.95,2.57 8.05,4.839 12.35,6.71 4.37,1.961 8.83,3.481 13.44,4.54 4.57,1.128 9.41,1.71 14.53,1.71 8.83,0 16.87,-1.25 24.06,-3.75 7.27,-2.421 13.44,-6.171 18.44,-11.25 5.08,-5 8.98,-11.48 11.72,-19.371 2.69,-7.929 4.06,-17.269 4.06,-27.968 v -80 h 25.15 V 73.9805 h -79.21 v 27.6605 h 22.81 v 76.25 c 0,12.808 -3.28,22.5 -9.85,29.058 -6.48,6.641 -15.74,10 -27.81,10 -6.87,0 -13.86,-1.679 -20.94,-5 -7.1,-3.238 -13.75,-7.34 -20,-12.34 v -97.968 h 24.22 V 73.9805 h -79.37 v 27.6605 h 25.15 v 195.308 h -22.81 z" /><path
           id="path50"
           style="fill:#2c3e51;fill-opacity:1;fill-rule:nonzero;stroke:none"
           d="m 2793.01,101.641 h 23.59 v 76.25 c 0,12.808 -3.28,22.5 -9.84,29.058 -6.49,6.641 -15.74,10 -27.81,10 -7,0 -14.03,-1.679 -21.1,-5 -7.11,-3.359 -13.83,-7.5 -20.15,-12.5 v -97.808 h 23.43 V 73.9805 h -77.97 v 27.6605 h 23.29 v 111.558 h -23.29 v 27.66 h 53.13 v -19.531 h 0.47 c 3.51,3.012 7.26,5.942 11.25,8.75 4.06,2.813 8.28,5.192 12.65,7.192 4.38,2.07 8.95,3.671 13.75,4.839 4.77,1.25 9.85,1.871 15.16,1.871 8.83,0 16.88,-1.25 24.06,-3.75 7.27,-2.421 13.44,-6.171 18.44,-11.25 5,-5 8.83,-11.48 11.56,-19.371 2.82,-7.929 4.22,-17.269 4.22,-27.968 v -80 h 23.28 V 73.9805 h -78.12 z" /><path
           id="path52"
           style="fill:#2c3e51;fill-opacity:1;fill-rule:nonzero;stroke:none"
           d="m 2901.41,157.422 c 0.07,13.199 2.18,25.238 6.25,36.098 4.14,10.82 9.92,20.152 17.34,27.96 7.38,7.821 16.17,13.79 26.41,17.969 10.19,4.141 21.44,6.25 33.75,6.25 12.38,0 23.67,-2.109 33.9,-6.25 10.32,-4.179 19.1,-10.109 26.41,-17.808 7.26,-7.731 12.97,-16.993 17.03,-27.813 4.06,-10.859 6.09,-22.887 6.09,-36.098 0,-13.039 -2.03,-25 -6.09,-35.929 -4.06,-10.86 -9.77,-20.16 -17.03,-27.9729 -7.31,-7.8086 -16.09,-13.9062 -26.41,-18.2773 -10.23,-4.3789 -21.52,-6.5703 -33.9,-6.5703 -12.62,0 -24.03,2.1484 -34.22,6.4101 -10.24,4.3789 -18.99,10.3907 -26.25,18.1289 -7.31,7.8085 -12.97,17.1015 -17.03,27.9605 -4.07,10.821 -6.18,22.821 -6.25,35.942 z m 31.71,0 c 0,-9.613 1.33,-18.242 4.07,-25.942 2.69,-7.73 6.44,-14.289 11.25,-19.679 4.76,-5.43 10.31,-9.653 16.56,-12.6604 6.33,-2.9297 13.05,-4.3711 20.16,-4.3711 7.38,0 14.25,1.4414 20.62,4.3711 6.45,2.8904 12.03,7.0704 16.72,12.5004 4.77,5.39 8.48,11.949 11.09,19.687 2.7,7.692 4.07,16.402 4.07,26.094 0,10.078 -1.37,19.058 -4.07,26.879 -2.61,7.89 -6.25,14.449 -10.93,19.679 -4.69,5.321 -10.28,9.258 -16.72,11.879 -6.49,2.692 -13.4,4.063 -20.78,4.063 -7.11,0 -13.83,-1.371 -20.16,-4.063 -6.25,-2.621 -11.8,-6.558 -16.56,-11.879 -4.81,-5.23 -8.56,-11.789 -11.25,-19.679 -2.74,-7.821 -4.07,-16.801 -4.07,-26.879 z" /><path
           id="path54"
           style="fill:#2c3e51;fill-opacity:1;fill-rule:nonzero;stroke:none"
           d="m 3099.57,324.77 h 54.06 V 101.641 h 25.16 V 73.9805 h -79.22 v 27.6605 h 24.22 v 195.308 h -24.22 z" /><path
           id="path56"
           style="fill:#2c3e51;fill-opacity:1;fill-rule:nonzero;stroke:none"
           d="m 3206.25,157.422 c 0.08,13.199 2.19,25.238 6.25,36.098 4.14,10.82 9.92,20.152 17.34,27.96 7.39,7.821 16.18,13.79 26.41,17.969 10.2,4.141 21.45,6.25 33.75,6.25 12.38,0 23.67,-2.109 33.91,-6.25 10.31,-4.179 19.1,-10.109 26.4,-17.808 7.27,-7.731 12.97,-16.993 17.03,-27.813 4.07,-10.859 6.1,-22.887 6.1,-36.098 0,-13.039 -2.03,-25 -6.1,-35.929 -4.06,-10.86 -9.76,-20.16 -17.03,-27.9729 -7.3,-7.8086 -16.09,-13.9062 -26.4,-18.2773 -10.24,-4.3789 -21.53,-6.5703 -33.91,-6.5703 -12.62,0 -24.02,2.1484 -34.22,6.4101 -10.23,4.3789 -18.98,10.3907 -26.25,18.1289 -7.3,7.8085 -12.97,17.1015 -17.03,27.9605 -4.06,10.821 -6.17,22.821 -6.25,35.942 z m 31.72,0 c 0,-9.613 1.33,-18.242 4.06,-25.942 2.7,-7.73 6.45,-14.289 11.25,-19.679 4.77,-5.43 10.31,-9.653 16.56,-12.6604 6.33,-2.9297 13.05,-4.3711 20.16,-4.3711 7.38,0 14.26,1.4414 20.62,4.3711 6.45,2.8904 12.04,7.0704 16.72,12.5004 4.77,5.39 8.48,11.949 11.1,19.687 2.69,7.692 4.06,16.402 4.06,26.094 0,10.078 -1.37,19.058 -4.06,26.879 -2.62,7.89 -6.25,14.449 -10.94,19.679 -4.69,5.321 -10.27,9.258 -16.72,11.879 -6.48,2.692 -13.4,4.063 -20.78,4.063 -7.11,0 -13.83,-1.371 -20.16,-4.063 -6.25,-2.621 -11.79,-6.558 -16.56,-11.879 -4.8,-5.23 -8.55,-11.789 -11.25,-19.679 -2.73,-7.821 -4.06,-16.801 -4.06,-26.879 z" /><path
           id="path58"
           style="fill:#2c3e51;fill-opacity:1;fill-rule:nonzero;stroke:none"
           d="m 3527.85,88.6719 c -5.55,-5.8633 -11.95,-10.3906 -19.22,-13.5938 -7.18,-3.1992 -15.43,-4.8476 -24.68,-4.8476 -11.25,0 -21.8,2 -31.57,5.9414 -9.68,3.9492 -18.12,9.6875 -25.31,17.1875 -7.11,7.5816 -12.66,16.8706 -16.72,27.8126 -3.98,11.019 -5.94,23.668 -5.94,37.969 0,12.808 1.92,24.449 5.79,35 3.82,10.629 9.29,19.687 16.4,27.187 7.07,7.5 15.63,13.281 25.63,17.344 10,4.137 21.13,6.25 33.43,6.25 8.32,0 15.82,-0.942 22.5,-2.813 6.76,-1.879 13.32,-5.121 19.69,-9.687 v 8.437 h 30 V 80.5508 c 0,-26.332 -6.33,-46.2891 -18.9,-59.8516 -12.5,-13.50779 -31.96,-20.308575 -58.29,-20.308575 -5.86,0 -11.95,0.429688 -18.28,1.250005 -6.36,0.85937 -12.61,2.1875 -18.75,4.05859 -6.17,1.87891 -12.18,4.30078 -18.12,7.19138 -5.86,2.9297 -11.21,6.4883 -16.1,10.6289 l 16.1,24.3711 c 3.2,-2.8125 6.87,-5.3515 10.94,-7.6601 4.14,-2.3789 8.59,-4.4102 13.28,-6.0899 4.76,-1.6406 9.68,-2.9687 14.68,-3.9101 5.08,-1.0117 10.16,-1.5586 15.16,-1.5586 8.32,0 15.51,0.8984 21.56,2.6562 6.02,1.6836 11.02,4.6914 15,9.0625 3.95,4.3789 6.88,10.2696 8.75,17.6602 1.96,7.418 2.97,16.75 2.97,28.1211 z m -40,7.6562 c 5,0 9.53,0.4727 13.6,1.4024 4.06,1.0195 7.73,2.3475 11.09,3.9105 3.32,1.558 6.25,3.32 8.75,5.308 2.5,2.071 4.69,4.262 6.56,6.571 v 91.25 c -5.55,4.878 -11.87,8.351 -19.06,10.46 -7.11,2.192 -14.38,3.29 -21.88,3.29 -7.11,0 -13.75,-1.329 -20,-3.911 -6.25,-2.621 -11.71,-6.488 -16.4,-11.558 -4.69,-5 -8.4,-11.211 -11.1,-18.602 -2.61,-7.301 -3.9,-15.621 -3.9,-25 0,-10.308 1.25,-19.449 3.75,-27.34 2.58,-7.808 6.17,-14.379 10.78,-19.687 4.69,-5.313 10.23,-9.332 16.72,-12.031 6.44,-2.7308 13.47,-4.0629 21.09,-4.0629 z" /><path
           id="path60"
           style="fill:#2c3e51;fill-opacity:1;fill-rule:nonzero;stroke:none"
           d="m 3597.77,240.859 h 54.38 V 101.641 h 25.15 V 73.9805 h -79.21 v 27.6605 h 23.9 v 111.558 h -24.22 z m 18.44,59.219 c 0,2.813 0.55,5.473 1.72,7.973 1.13,2.5 2.66,4.679 4.53,6.558 1.88,1.871 4.1,3.36 6.72,4.532 2.58,1.129 5.35,1.718 8.28,1.718 2.7,0 5.31,-0.589 7.81,-1.718 2.58,-1.172 4.85,-2.661 6.72,-4.532 1.88,-1.879 3.36,-4.058 4.53,-6.558 1.14,-2.5 1.72,-5.16 1.72,-7.973 0,-2.93 -0.58,-5.699 -1.72,-8.277 -1.17,-2.5 -2.65,-4.813 -4.53,-6.879 -1.87,-1.992 -4.14,-3.551 -6.72,-4.692 -2.5,-1.05 -5.11,-1.558 -7.81,-1.558 -2.93,0 -5.7,0.508 -8.28,1.558 -2.62,1.141 -4.84,2.7 -6.72,4.692 -1.87,2.066 -3.4,4.379 -4.53,6.879 -1.17,2.578 -1.72,5.347 -1.72,8.277 z" /><path
           id="path62"
           style="fill:#2c3e51;fill-opacity:1;fill-rule:nonzero;stroke:none"
           d="m 3733.16,153.52 c 0,-4.692 0.32,-9.032 0.94,-12.969 0.7,-3.871 1.72,-7.582 2.97,-11.102 4.06,-10.738 10.47,-18.859 19.22,-24.371 8.75,-5.4296 18.63,-8.1288 29.69,-8.1288 8.63,0 17.07,1.1719 25.31,3.6018 8.2,2.5 16.87,6.289 25.94,11.398 l 12.03,-20.4685 c -10.94,-7.5 -21.96,-13.0821 -32.97,-16.711 -11.06,-3.6406 -22.58,-5.4687 -34.53,-5.4687 -11.25,0 -21.72,1.8711 -31.41,5.6211 -9.61,3.75 -17.89,9.2969 -24.84,16.7187 -6.88,7.5 -12.31,16.7574 -16.25,27.8084 -3.87,11.02 -5.78,23.91 -5.78,38.602 0,11.949 1.64,23.199 5,33.75 3.32,10.621 8.28,19.879 14.84,27.808 6.64,7.891 14.84,14.141 24.53,18.75 9.77,4.571 21.17,6.871 34.22,6.871 12.58,0 23.13,-1.949 31.56,-5.781 8.44,-3.75 15.32,-8.828 20.63,-15.148 5.31,-6.25 9.29,-13.403 12.03,-21.41 2.69,-8.051 4.61,-16.25 5.78,-24.692 0.51,-4.058 0.82,-8.199 0.94,-12.34 0.19,-4.179 0.31,-8.281 0.31,-12.339 z m 46.88,66.558 c -6.99,0 -13.09,-1.019 -18.28,-2.969 -5.24,-1.988 -9.65,-4.839 -13.28,-8.589 -3.68,-3.68 -6.64,-8.211 -8.91,-13.598 -2.19,-5.313 -3.83,-11.332 -4.84,-17.973 h 86.56 c -0.43,6.25 -1.41,11.961 -2.97,17.192 -1.56,5.308 -3.98,9.879 -7.19,13.75 -3.24,3.828 -7.42,6.8 -12.5,8.91 -5,2.179 -11.21,3.277 -18.59,3.277 z" /><path
           id="path64"
           style="fill:#2c3e51;fill-opacity:1;fill-rule:nonzero;stroke:none"
           d="m 3990.62,196.172 c 0,4.449 -1.05,8.277 -3.12,11.406 -2.11,3.203 -4.8,5.82 -8.12,7.813 -3.36,1.949 -7.11,3.437 -11.26,4.379 -4.06,0.929 -8.04,1.402 -11.87,1.402 -4.3,0 -8.24,-0.551 -11.87,-1.563 -3.56,-0.937 -6.65,-2.339 -9.22,-4.218 -2.62,-1.801 -4.65,-4.02 -6.1,-6.719 -1.48,-2.621 -2.18,-5.551 -2.18,-8.75 0,-5.543 1.64,-9.961 5,-13.281 3.43,-3.243 9.14,-6.25 17.18,-9.063 l 32.03,-11.25 c 13.75,-4.609 23.79,-10.898 30.16,-18.906 6.33,-7.934 9.53,-17.422 9.53,-28.442 0,-7.421 -1.52,-14.21 -4.53,-20.4605 -2.93,-6.1797 -7.11,-11.4101 -12.5,-15.789 -5.43,-4.3711 -11.99,-7.7696 -19.69,-10.1524 -7.61,-2.3789 -16.05,-3.5976 -25.31,-3.5976 -13.05,0 -23.67,2.1093 -31.87,6.25 -8.13,4.1484 -14.38,9.6914 -18.76,16.5703 h -16.71 v 27.8082 h 33.28 c 0,-4.609 0.97,-8.558 2.97,-11.879 1.95,-3.242 4.57,-5.89 7.81,-7.9605 3.32,-2.1093 7.07,-3.5976 11.25,-4.539 4.14,-0.9297 8.36,-1.4024 12.66,-1.4024 4.14,0 8.16,0.4727 12.03,1.4024 3.82,1.0195 7.22,2.539 10.15,4.539 3.01,2.0705 5.35,4.4495 7.03,7.1795 1.76,2.821 2.66,5.981 2.66,9.531 0,5.399 -1.8,10 -5.31,13.75 -3.44,3.75 -9.38,7.11 -17.82,10.161 l -31.87,11.879 c -12.93,4.679 -22.58,10.539 -28.91,17.652 -6.25,7.187 -9.37,16.129 -9.37,26.879 0,7.07 1.29,13.59 3.91,19.527 2.57,6.012 6.4,11.25 11.4,15.621 5,4.379 11.1,7.742 18.28,10.16 7.19,2.5 15.39,3.75 24.69,3.75 11.95,0 21.95,-1.679 30,-5 8.01,-3.359 15.23,-9.019 21.72,-17.031 h 15.62 v -27.656 z" /></g></g></g></svg>
